<svg xmlns="http://www.w3.org/2000/svg" viewBox="0 0 64 64">
  <rect width="64" height="64" rx="14" fill="#09090b"/>
  <path d="M18 46V18h14c7.1 0 11.8 3.8 11.8 10.2 0 4.3-2.2 7.5-5.9 9l8.1 8.8H35.4l-6.9-7.8h-2.4V46H18Zm8.1-14.5h5.4c2.7 0 4.2-1.3 4.2-3.4 0-2.2-1.5-3.4-4.2-3.4h-5.4v6.8Z" fill="#f8fafc"/>
  <path d="M45.5 18.5c-2.8 0-5.3 1-7.3 2.8 2.4 1.4 4 3.8 4.3 6.8.9-.9 1.9-1.4 3-1.4 2.2 0 3.7 1.8 3.7 4.8 0 3.1-1.5 4.9-3.7 4.9-1.4 0-2.7-.8-3.7-2.1l-5.9 4.5c2.2 3.1 5.5 4.9 9.6 4.9 7.1 0 11.9-4.9 11.9-12.2 0-7.2-4.8-12-11.9-12Z" fill="#10b981"/>
</svg>
